<svg width="101" height="33" viewBox="0 0 101 33" fill="none" xmlns="http://www.w3.org/2000/svg">
<rect width="101" height="33" rx="16.5" fill="#EEEEEE"/>
<path d="M15.7422 17.2578H17.8906C17.8333 18.0182 17.6224 18.6927 17.2578 19.2812C16.8932 19.8646 16.3854 20.3229 15.7344 20.6562C15.0833 20.9896 14.2943 21.1562 13.3672 21.1562C12.6536 21.1562 12.0104 21.0312 11.4375 20.7812C10.8698 20.526 10.3828 20.1641 9.97656 19.6953C9.57552 19.2214 9.26823 18.6536 9.05469 17.9922C8.84115 17.3255 8.73438 16.5781 8.73438 15.75V14.8828C8.73438 14.0547 8.84375 13.3073 9.0625 12.6406C9.28125 11.974 9.59375 11.4062 10 10.9375C10.4115 10.4635 10.9036 10.099 11.4766 9.84375C12.0547 9.58854 12.7005 9.46094 13.4141 9.46094C14.3411 9.46094 15.125 9.63281 15.7656 9.97656C16.4062 10.3151 16.9036 10.7812 17.2578 11.375C17.612 11.9688 17.8255 12.651 17.8984 13.4219H15.75C15.7083 12.9427 15.6042 12.5365 15.4375 12.2031C15.276 11.8698 15.0312 11.6172 14.7031 11.4453C14.3802 11.2682 13.9505 11.1797 13.4141 11.1797C12.9974 11.1797 12.6302 11.2578 12.3125 11.4141C12 11.5703 11.7396 11.8047 11.5312 12.1172C11.3229 12.4245 11.1667 12.8099 11.0625 13.2734C10.9583 13.7318 10.9062 14.263 10.9062 14.8672V15.75C10.9062 16.3281 10.9531 16.8464 11.0469 17.3047C11.1406 17.763 11.2865 18.151 11.4844 18.4688C11.6823 18.7865 11.9375 19.0286 12.25 19.1953C12.5625 19.362 12.9349 19.4453 13.3672 19.4453C13.8932 19.4453 14.3203 19.362 14.6484 19.1953C14.9818 19.0286 15.2344 18.7839 15.4062 18.4609C15.5833 18.138 15.6953 17.737 15.7422 17.2578ZM19.0312 16.8594V16.6953C19.0312 16.0755 19.1198 15.5052 19.2969 14.9844C19.474 14.4583 19.7318 14.0026 20.0703 13.6172C20.4089 13.2318 20.8229 12.9323 21.3125 12.7188C21.8021 12.5 22.3594 12.3906 22.9844 12.3906C23.6198 12.3906 24.1823 12.5 24.6719 12.7188C25.1667 12.9323 25.5833 13.2318 25.9219 13.6172C26.2604 14.0026 26.5182 14.4583 26.6953 14.9844C26.8724 15.5052 26.9609 16.0755 26.9609 16.6953V16.8594C26.9609 17.474 26.8724 18.0443 26.6953 18.5703C26.5182 19.0911 26.2604 19.5469 25.9219 19.9375C25.5833 20.3229 25.1693 20.6224 24.6797 20.8359C24.1901 21.0495 23.6302 21.1562 23 21.1562C22.375 21.1562 21.8151 21.0495 21.3203 20.8359C20.8255 20.6224 20.4089 20.3229 20.0703 19.9375C19.7318 19.5469 19.474 19.0911 19.2969 18.5703C19.1198 18.0443 19.0312 17.474 19.0312 16.8594ZM21.0938 16.6953V16.8594C21.0938 17.2292 21.1302 17.5755 21.2031 17.8984C21.276 18.2214 21.388 18.5052 21.5391 18.75C21.6901 18.9948 21.8854 19.1875 22.125 19.3281C22.3698 19.4635 22.6615 19.5312 23 19.5312C23.3333 19.5312 23.6198 19.4635 23.8594 19.3281C24.099 19.1875 24.2943 18.9948 24.4453 18.75C24.6016 18.5052 24.7161 18.2214 24.7891 17.8984C24.862 17.5755 24.8984 17.2292 24.8984 16.8594V16.6953C24.8984 16.3307 24.862 15.9896 24.7891 15.6719C24.7161 15.349 24.6016 15.0651 24.4453 14.8203C24.2943 14.5703 24.0964 14.375 23.8516 14.2344C23.612 14.0885 23.3229 14.0156 22.9844 14.0156C22.651 14.0156 22.3646 14.0885 22.125 14.2344C21.8854 14.375 21.6901 14.5703 21.5391 14.8203C21.388 15.0651 21.276 15.349 21.2031 15.6719C21.1302 15.9896 21.0938 16.3307 21.0938 16.6953ZM30.4844 14.3516V21H28.4219V12.5469H30.3594L30.4844 14.3516ZM30.1562 16.4688H29.5469C29.5521 15.8542 29.6354 15.2969 29.7969 14.7969C29.9583 14.2969 30.1849 13.8672 30.4766 13.5078C30.7734 13.1484 31.125 12.8724 31.5312 12.6797C31.9375 12.487 32.3906 12.3906 32.8906 12.3906C33.2969 12.3906 33.6641 12.4479 33.9922 12.5625C34.3203 12.6771 34.6016 12.8594 34.8359 13.1094C35.0755 13.3594 35.2578 13.6875 35.3828 14.0938C35.513 14.4948 35.5781 14.9896 35.5781 15.5781V21H33.5V15.5625C33.5 15.1771 33.4427 14.8724 33.3281 14.6484C33.2188 14.4245 33.0573 14.2656 32.8438 14.1719C32.6354 14.0781 32.3776 14.0312 32.0703 14.0312C31.7526 14.0312 31.474 14.0964 31.2344 14.2266C31 14.3516 30.8021 14.526 30.6406 14.75C30.4844 14.974 30.3646 15.2318 30.2812 15.5234C30.1979 15.8151 30.1562 16.1302 30.1562 16.4688ZM41.3984 12.5469V14.0312H36.5547V12.5469H41.3984ZM37.8516 10.4688H39.9219V18.5625C39.9219 18.8125 39.9557 19.0052 40.0234 19.1406C40.0911 19.276 40.1927 19.3672 40.3281 19.4141C40.4635 19.4609 40.625 19.4844 40.8125 19.4844C40.9479 19.4844 41.0729 19.4766 41.1875 19.4609C41.3021 19.4453 41.3984 19.4297 41.4766 19.4141L41.4844 20.9609C41.3125 21.0182 41.1172 21.0651 40.8984 21.1016C40.6849 21.138 40.4427 21.1562 40.1719 21.1562C39.7083 21.1562 39.3021 21.0781 38.9531 20.9219C38.6042 20.7604 38.3333 20.5026 38.1406 20.1484C37.9479 19.7891 37.8516 19.3151 37.8516 18.7266V10.4688ZM47.4297 19.2031V15.3047C47.4297 15.0182 47.3802 14.7708 47.2812 14.5625C47.1823 14.3542 47.0312 14.1927 46.8281 14.0781C46.625 13.9635 46.3672 13.9062 46.0547 13.9062C45.7786 13.9062 45.5365 13.9531 45.3281 14.0469C45.125 14.1406 44.9688 14.2734 44.8594 14.4453C44.75 14.612 44.6953 14.8047 44.6953 15.0234H42.625C42.625 14.6745 42.7083 14.3438 42.875 14.0312C43.0417 13.7135 43.2786 13.4323 43.5859 13.1875C43.8984 12.9375 44.2708 12.7422 44.7031 12.6016C45.1406 12.4609 45.6302 12.3906 46.1719 12.3906C46.8125 12.3906 47.3828 12.5 47.8828 12.7188C48.388 12.9323 48.7839 13.2552 49.0703 13.6875C49.362 14.1198 49.5078 14.6641 49.5078 15.3203V19.0078C49.5078 19.4297 49.5339 19.7917 49.5859 20.0938C49.6432 20.3906 49.7266 20.6484 49.8359 20.8672V21H47.7344C47.6354 20.7865 47.5599 20.5156 47.5078 20.1875C47.4557 19.8542 47.4297 19.526 47.4297 19.2031ZM47.7188 15.8516L47.7344 17.0781H46.4297C46.1068 17.0781 45.8229 17.112 45.5781 17.1797C45.3333 17.2422 45.1328 17.3359 44.9766 17.4609C44.8203 17.5807 44.7031 17.7266 44.625 17.8984C44.5469 18.0651 44.5078 18.2552 44.5078 18.4688C44.5078 18.6771 44.5547 18.8646 44.6484 19.0312C44.7474 19.1979 44.888 19.3307 45.0703 19.4297C45.2578 19.5234 45.4766 19.5703 45.7266 19.5703C46.0911 19.5703 46.4089 19.4974 46.6797 19.3516C46.9505 19.2005 47.1615 19.0182 47.3125 18.8047C47.4635 18.5911 47.5443 18.388 47.5547 18.1953L48.1484 19.0859C48.0755 19.2995 47.9661 19.526 47.8203 19.7656C47.6745 20.0052 47.487 20.2292 47.2578 20.4375C47.0286 20.6458 46.7526 20.8177 46.4297 20.9531C46.1068 21.0885 45.7318 21.1562 45.3047 21.1562C44.7578 21.1562 44.2682 21.0469 43.8359 20.8281C43.4036 20.6094 43.0625 20.3099 42.8125 19.9297C42.5625 19.5495 42.4375 19.1172 42.4375 18.6328C42.4375 18.1849 42.5208 17.7891 42.6875 17.4453C42.8542 17.1016 43.1016 16.8125 43.4297 16.5781C43.7578 16.3385 44.1641 16.1589 44.6484 16.0391C45.138 15.9141 45.6979 15.8516 46.3281 15.8516H47.7188ZM54.8359 19.5312C55.1276 19.5312 55.388 19.474 55.6172 19.3594C55.8464 19.2448 56.0286 19.0833 56.1641 18.875C56.3047 18.6667 56.3802 18.4245 56.3906 18.1484H58.3359C58.3255 18.7214 58.1641 19.2344 57.8516 19.6875C57.5391 20.1406 57.1224 20.5 56.6016 20.7656C56.0859 21.026 55.5078 21.1562 54.8672 21.1562C54.2161 21.1562 53.6484 21.0469 53.1641 20.8281C52.6797 20.6094 52.276 20.3047 51.9531 19.9141C51.6354 19.5234 51.3958 19.0703 51.2344 18.5547C51.0781 18.0391 51 17.487 51 16.8984V16.6484C51 16.0599 51.0781 15.5078 51.2344 14.9922C51.3958 14.4766 51.6354 14.0234 51.9531 13.6328C52.276 13.2422 52.6797 12.9375 53.1641 12.7188C53.6484 12.5 54.2135 12.3906 54.8594 12.3906C55.5417 12.3906 56.1406 12.5234 56.6562 12.7891C57.1771 13.0547 57.5833 13.4297 57.875 13.9141C58.1719 14.3984 58.3255 14.9688 58.3359 15.625H56.3906C56.3802 15.3229 56.3125 15.0521 56.1875 14.8125C56.0625 14.5729 55.8854 14.3802 55.6562 14.2344C55.4271 14.0885 55.1484 14.0156 54.8203 14.0156C54.4714 14.0156 54.1797 14.0885 53.9453 14.2344C53.7161 14.3802 53.5365 14.5807 53.4062 14.8359C53.2812 15.0859 53.1927 15.3672 53.1406 15.6797C53.0938 15.987 53.0703 16.3099 53.0703 16.6484V16.8984C53.0703 17.2422 53.0938 17.5703 53.1406 17.8828C53.1927 18.1953 53.2812 18.4766 53.4062 18.7266C53.5365 18.9714 53.7161 19.1667 53.9453 19.3125C54.1797 19.4583 54.4766 19.5312 54.8359 19.5312ZM63.7109 12.5469V14.0312H58.8672V12.5469H63.7109ZM60.1641 10.4688H62.2344V18.5625C62.2344 18.8125 62.2682 19.0052 62.3359 19.1406C62.4036 19.276 62.5052 19.3672 62.6406 19.4141C62.776 19.4609 62.9375 19.4844 63.125 19.4844C63.2604 19.4844 63.3854 19.4766 63.5 19.4609C63.6146 19.4453 63.7109 19.4297 63.7891 19.4141L63.7969 20.9609C63.625 21.0182 63.4297 21.0651 63.2109 21.1016C62.9974 21.138 62.7552 21.1562 62.4844 21.1562C62.0208 21.1562 61.6146 21.0781 61.2656 20.9219C60.9167 20.7604 60.6458 20.5026 60.4531 20.1484C60.2604 19.7891 60.1641 19.3151 60.1641 18.7266V10.4688Z" fill="#2B1D1E"/>
<circle cx="82" cy="16" r="14" fill="#2B1D1E"/>
<path d="M90.7071 16.7071C91.0976 16.3166 91.0976 15.6834 90.7071 15.2929L84.3431 8.92893C83.9526 8.53841 83.3195 8.53841 82.9289 8.92893C82.5384 9.31946 82.5384 9.95262 82.9289 10.3431L88.5858 16L82.9289 21.6569C82.5384 22.0474 82.5384 22.6805 82.9289 23.0711C83.3195 23.4616 83.9526 23.4616 84.3431 23.0711L90.7071 16.7071ZM75 17H90V15H75V17Z" fill="#F8F7F3"/>
</svg>
