<svg width="167" height="51" viewBox="0 0 167 51" fill="none" xmlns="http://www.w3.org/2000/svg">
<rect width="167" height="51" rx="25.5" fill="#F8A63B"/>
<path d="M33.6328 24.3203V26.0078H27.6484V24.3203H33.6328ZM28.2344 19.625V31H26.0859V19.625H28.2344ZM35.2266 19.625V31H33.0781V19.625H35.2266ZM39.4453 22.5469V31H37.375V22.5469H39.4453ZM37.2344 20.3359C37.2344 20.0286 37.3385 19.7734 37.5469 19.5703C37.7604 19.3672 38.0469 19.2656 38.4062 19.2656C38.7656 19.2656 39.0495 19.3672 39.2578 19.5703C39.4714 19.7734 39.5781 20.0286 39.5781 20.3359C39.5781 20.638 39.4714 20.8906 39.2578 21.0938C39.0495 21.2969 38.7656 21.3984 38.4062 21.3984C38.0469 21.3984 37.7604 21.2969 37.5469 21.0938C37.3385 20.8906 37.2344 20.638 37.2344 20.3359ZM43.4766 24.2734V31H41.4141V22.5469H43.3672L43.4766 24.2734ZM46.0469 22.4922L46.0156 24.4141C45.901 24.3932 45.7708 24.3776 45.625 24.3672C45.4844 24.3568 45.3516 24.3516 45.2266 24.3516C44.9089 24.3516 44.6302 24.3958 44.3906 24.4844C44.151 24.5677 43.9505 24.6901 43.7891 24.8516C43.6328 25.013 43.513 25.2109 43.4297 25.4453C43.3464 25.6745 43.2995 25.9349 43.2891 26.2266L42.8438 26.1719C42.8438 25.6354 42.8984 25.138 43.0078 24.6797C43.1172 24.2214 43.276 23.8203 43.4844 23.4766C43.6927 23.1328 43.9531 22.8672 44.2656 22.6797C44.5833 22.487 44.9479 22.3906 45.3594 22.3906C45.474 22.3906 45.5964 22.401 45.7266 22.4219C45.862 22.4375 45.9688 22.4609 46.0469 22.4922ZM50.8203 31.1562C50.1797 31.1562 49.6042 31.0521 49.0938 30.8438C48.5833 30.6354 48.1484 30.3464 47.7891 29.9766C47.4349 29.6016 47.1615 29.1667 46.9688 28.6719C46.7812 28.1719 46.6875 27.6354 46.6875 27.0625V26.75C46.6875 26.099 46.7812 25.5078 46.9688 24.9766C47.1562 24.4401 47.4219 23.9792 47.7656 23.5938C48.1094 23.2083 48.5208 22.9115 49 22.7031C49.4792 22.4948 50.0078 22.3906 50.5859 22.3906C51.1849 22.3906 51.7135 22.4922 52.1719 22.6953C52.6302 22.8932 53.013 23.1745 53.3203 23.5391C53.6276 23.9036 53.8594 24.3411 54.0156 24.8516C54.1719 25.3568 54.25 25.9167 54.25 26.5312V27.3984H47.625V25.9766H52.2188V25.8203C52.2083 25.4922 52.1458 25.1927 52.0312 24.9219C51.9167 24.6458 51.7396 24.4271 51.5 24.2656C51.2604 24.099 50.9505 24.0156 50.5703 24.0156C50.263 24.0156 49.9948 24.0833 49.7656 24.2188C49.5417 24.349 49.3542 24.5365 49.2031 24.7812C49.0573 25.0208 48.9479 25.3073 48.875 25.6406C48.8021 25.974 48.7656 26.3438 48.7656 26.75V27.0625C48.7656 27.4167 48.8125 27.7448 48.9062 28.0469C49.0052 28.349 49.1484 28.612 49.3359 28.8359C49.5286 29.0547 49.7578 29.2266 50.0234 29.3516C50.2943 29.4714 50.6016 29.5312 50.9453 29.5312C51.3776 29.5312 51.7682 29.4479 52.1172 29.2812C52.4714 29.1094 52.7786 28.8568 53.0391 28.5234L54.0781 29.6016C53.901 29.862 53.6615 30.112 53.3594 30.3516C53.0625 30.5911 52.7031 30.7865 52.2812 30.9375C51.8594 31.0833 51.3724 31.1562 50.8203 31.1562ZM60.7109 19.625H62.5703L65.6797 28.1875L68.7812 19.625H70.6484L66.4219 31H64.9297L60.7109 19.625ZM59.7734 19.625H61.5938L61.9219 27.4922V31H59.7734V19.625ZM69.7578 19.625H71.5859V31H69.4375V27.4922L69.7578 19.625ZM77.4141 31.1562C76.7734 31.1562 76.1979 31.0521 75.6875 30.8438C75.1771 30.6354 74.7422 30.3464 74.3828 29.9766C74.0286 29.6016 73.7552 29.1667 73.5625 28.6719C73.375 28.1719 73.2812 27.6354 73.2812 27.0625V26.75C73.2812 26.099 73.375 25.5078 73.5625 24.9766C73.75 24.4401 74.0156 23.9792 74.3594 23.5938C74.7031 23.2083 75.1146 22.9115 75.5938 22.7031C76.0729 22.4948 76.6016 22.3906 77.1797 22.3906C77.7786 22.3906 78.3073 22.4922 78.7656 22.6953C79.224 22.8932 79.6068 23.1745 79.9141 23.5391C80.2214 23.9036 80.4531 24.3411 80.6094 24.8516C80.7656 25.3568 80.8438 25.9167 80.8438 26.5312V27.3984H74.2188V25.9766H78.8125V25.8203C78.8021 25.4922 78.7396 25.1927 78.625 24.9219C78.5104 24.6458 78.3333 24.4271 78.0938 24.2656C77.8542 24.099 77.5443 24.0156 77.1641 24.0156C76.8568 24.0156 76.5885 24.0833 76.3594 24.2188C76.1354 24.349 75.9479 24.5365 75.7969 24.7812C75.651 25.0208 75.5417 25.3073 75.4688 25.6406C75.3958 25.974 75.3594 26.3438 75.3594 26.75V27.0625C75.3594 27.4167 75.4062 27.7448 75.5 28.0469C75.599 28.349 75.7422 28.612 75.9297 28.8359C76.1224 29.0547 76.3516 29.2266 76.6172 29.3516C76.888 29.4714 77.1953 29.5312 77.5391 29.5312C77.9714 29.5312 78.362 29.4479 78.7109 29.2812C79.0651 29.1094 79.3724 28.8568 79.6328 28.5234L80.6719 29.6016C80.4948 29.862 80.2552 30.112 79.9531 30.3516C79.6562 30.5911 79.2969 30.7865 78.875 30.9375C78.4531 31.0833 77.9661 31.1562 77.4141 31.1562ZM88.5625 19.625L88.3359 27.5859H86.5938L86.3672 19.625H88.5625ZM86.3047 30.0391C86.3047 29.7318 86.4089 29.474 86.6172 29.2656C86.8307 29.0521 87.1172 28.9453 87.4766 28.9453C87.8359 28.9453 88.1198 29.0521 88.3281 29.2656C88.5417 29.474 88.6484 29.7318 88.6484 30.0391C88.6484 30.3411 88.5417 30.5964 88.3281 30.8047C88.1198 31.013 87.8359 31.1172 87.4766 31.1172C87.1172 31.1172 86.8307 31.013 86.6172 30.8047C86.4089 30.5964 86.3047 30.3411 86.3047 30.0391Z" fill="#2B1D1E"/>
<circle cx="138.5" cy="25.5" r="20.5" fill="#2B1D1E"/>
<path d="M148.707 26.7071C149.098 26.3166 149.098 25.6834 148.707 25.2929L142.343 18.9289C141.953 18.5384 141.319 18.5384 140.929 18.9289C140.538 19.3195 140.538 19.9526 140.929 20.3431L146.586 26L140.929 31.6569C140.538 32.0474 140.538 32.6805 140.929 33.0711C141.319 33.4616 141.953 33.4616 142.343 33.0711L148.707 26.7071ZM129 27H148V25H129V27Z" fill="#F8F7F3"/>
</svg>
