<svg width="49" height="21" viewBox="0 0 49 21" fill="none" xmlns="http://www.w3.org/2000/svg">
<path d="M4.77295 20V17.8638L6.67725 17.4976V4.97314H3.44238L3.24707 7.09717H0.549316V2.22656H16.4062V7.09717H13.6963L13.501 4.97314H10.2417V17.4976L12.1582 17.8638V20H4.77295ZM23.0591 20.2563C21.757 20.2563 20.638 19.9715 19.7021 19.4019C18.7663 18.8322 18.0501 18.0428 17.5537 17.0337C17.0573 16.0164 16.8091 14.8486 16.8091 13.5303V13.2739C16.8091 11.9637 17.0573 10.804 17.5537 9.79492C18.0501 8.77767 18.7622 7.98421 19.6899 7.41455C20.6258 6.83675 21.7407 6.54785 23.0347 6.54785C24.3449 6.54785 25.4639 6.83675 26.3916 7.41455C27.3193 7.98421 28.0314 8.7736 28.5278 9.78271C29.0243 10.7918 29.2725 11.9556 29.2725 13.2739V13.5303C29.2725 14.8486 29.0243 16.0164 28.5278 17.0337C28.0314 18.0428 27.3193 18.8322 26.3916 19.4019C25.4639 19.9715 24.353 20.2563 23.0591 20.2563ZM23.0591 17.522C23.6776 17.522 24.1821 17.3551 24.5728 17.0215C24.9634 16.6878 25.2523 16.224 25.4395 15.6299C25.6266 15.0277 25.7202 14.3278 25.7202 13.5303V13.2739C25.7202 12.4927 25.6266 11.805 25.4395 11.2109C25.2523 10.6087 24.9593 10.1408 24.5605 9.80713C24.1699 9.46533 23.6613 9.29443 23.0347 9.29443C22.4243 9.29443 21.9198 9.46533 21.521 9.80713C21.1222 10.1408 20.8293 10.6087 20.6421 11.2109C20.4631 11.805 20.3735 12.4927 20.3735 13.2739V13.5303C20.3735 14.3278 20.4631 15.0277 20.6421 15.6299C20.8293 16.2321 21.1222 16.7 21.521 17.0337C21.9198 17.3592 22.4325 17.522 23.0591 17.522ZM31.1401 20V17.8638L32.8491 17.4976V9.30664L30.957 8.94043V6.79199H36.1694L36.3037 8.42773L36.3281 8.7207C36.6536 8.00456 37.0565 7.46338 37.5366 7.09717C38.0168 6.73096 38.5905 6.54785 39.2578 6.54785C39.4694 6.54785 39.7013 6.5682 39.9536 6.60889C40.2059 6.64144 40.4297 6.6862 40.625 6.74316L40.2466 10.0269L38.4766 9.9292C37.972 9.90479 37.561 9.99023 37.2437 10.1855C36.9344 10.3809 36.6577 10.6616 36.4136 11.0278V17.4976L38.1226 17.8638V20H31.1401ZM41.748 20V17.8638L43.4692 17.4976V9.30664L41.5649 8.94043V6.79199H47.0337V17.4976L48.7427 17.8638V20H41.748ZM43.3472 3.99658V0.957031H47.0337V3.99658H43.3472Z" fill="black"/>
</svg>
